<svg width="19" height="19" viewBox="0 0 19 19" fill="none" xmlns="http://www.w3.org/2000/svg">
<path d="M6.33333 11.0834C6.10903 11.0834 5.92088 11.0074 5.76888 10.8554C5.6174 10.7039 5.54167 10.516 5.54167 10.2917C5.54167 10.0674 5.6174 9.87925 5.76888 9.72725C5.92088 9.57578 6.10903 9.50004 6.33333 9.50004C6.55764 9.50004 6.74579 9.57578 6.89779 9.72725C7.04926 9.87925 7.125 10.0674 7.125 10.2917C7.125 10.516 7.04926 10.7039 6.89779 10.8554C6.74579 11.0074 6.55764 11.0834 6.33333 11.0834ZM9.5 11.0834C9.27569 11.0834 9.08781 11.0074 8.93633 10.8554C8.78433 10.7039 8.70833 10.516 8.70833 10.2917C8.70833 10.0674 8.78433 9.87925 8.93633 9.72725C9.08781 9.57578 9.27569 9.50004 9.5 9.50004C9.72431 9.50004 9.91246 9.57578 10.0645 9.72725C10.2159 9.87925 10.2917 10.0674 10.2917 10.2917C10.2917 10.516 10.2159 10.7039 10.0645 10.8554C9.91246 11.0074 9.72431 11.0834 9.5 11.0834ZM12.6667 11.0834C12.4424 11.0834 12.2545 11.0074 12.103 10.8554C11.951 10.7039 11.875 10.516 11.875 10.2917C11.875 10.0674 11.951 9.87925 12.103 9.72725C12.2545 9.57578 12.4424 9.50004 12.6667 9.50004C12.891 9.50004 13.0789 9.57578 13.2303 9.72725C13.3823 9.87925 13.4583 10.0674 13.4583 10.2917C13.4583 10.516 13.3823 10.7039 13.2303 10.8554C13.0789 11.0074 12.891 11.0834 12.6667 11.0834ZM3.95833 17.4167C3.52292 17.4167 3.15004 17.2618 2.83971 16.952C2.5299 16.6417 2.375 16.2688 2.375 15.8334V4.75004C2.375 4.31462 2.5299 3.94201 2.83971 3.63221C3.15004 3.32187 3.52292 3.16671 3.95833 3.16671H4.75V1.58337H6.33333V3.16671H12.6667V1.58337H14.25V3.16671H15.0417C15.4771 3.16671 15.85 3.32187 16.1603 3.63221C16.4701 3.94201 16.625 4.31462 16.625 4.75004V15.8334C16.625 16.2688 16.4701 16.6417 16.1603 16.952C15.85 17.2618 15.4771 17.4167 15.0417 17.4167H3.95833ZM3.95833 15.8334H15.0417V7.91671H3.95833V15.8334Z" fill="#F3520B"/>
</svg>
