<svg class="icon" width="51" height="50" viewBox="0 0 51 50" fill="none"
xmlns="http://www.w3.org/2000/svg">
<g clip-path="url(#clip0_19_738)">
  <path
    d="M2.0625 3.125C1.6481 3.125 1.25067 3.28962 0.957646 3.58265C0.66462 3.87567 0.5 4.2731 0.5 4.6875C0.5 5.1019 0.66462 5.49933 0.957646 5.79235C1.25067 6.08538 1.6481 6.25 2.0625 6.25H5.53125L6.78437 11.2719L11.4656 36.225C11.5327 36.5831 11.7227 36.9064 12.0028 37.1392C12.283 37.3721 12.6357 37.4997 13 37.5H16.125C14.4674 37.5 12.8777 38.1585 11.7056 39.3306C10.5335 40.5027 9.875 42.0924 9.875 43.75C9.875 45.4076 10.5335 46.9973 11.7056 48.1694C12.8777 49.3415 14.4674 50 16.125 50C17.7826 50 19.3723 49.3415 20.5444 48.1694C21.7165 46.9973 22.375 45.4076 22.375 43.75C22.375 42.0924 21.7165 40.5027 20.5444 39.3306C19.3723 38.1585 17.7826 37.5 16.125 37.5H38C36.3424 37.5 34.7527 38.1585 33.5806 39.3306C32.4085 40.5027 31.75 42.0924 31.75 43.75C31.75 45.4076 32.4085 46.9973 33.5806 48.1694C34.7527 49.3415 36.3424 50 38 50C39.6576 50 41.2473 49.3415 42.4194 48.1694C43.5915 46.9973 44.25 45.4076 44.25 43.75C44.25 42.0924 43.5915 40.5027 42.4194 39.3306C41.2473 38.1585 39.6576 37.5 38 37.5H41.125C41.4893 37.4997 41.842 37.3721 42.1222 37.1392C42.4023 36.9064 42.5923 36.5831 42.6594 36.225L47.3469 11.225C47.3891 10.9995 47.3811 10.7675 47.3235 10.5454C47.266 10.3233 47.1602 10.1166 47.0137 9.94001C46.8673 9.76342 46.6837 9.62125 46.4761 9.5236C46.2685 9.42595 46.0419 9.37521 45.8125 9.375H9.53125L8.26562 4.30937C8.18128 3.9712 7.98629 3.67093 7.71166 3.45633C7.43703 3.24172 7.09853 3.1251 6.75 3.125H2.0625ZM19.25 43.75C19.25 44.5788 18.9208 45.3737 18.3347 45.9597C17.7487 46.5458 16.9538 46.875 16.125 46.875C15.2962 46.875 14.5013 46.5458 13.9153 45.9597C13.3292 45.3737 13 44.5788 13 43.75C13 42.9212 13.3292 42.1263 13.9153 41.5403C14.5013 40.9542 15.2962 40.625 16.125 40.625C16.9538 40.625 17.7487 40.9542 18.3347 41.5403C18.9208 42.1263 19.25 42.9212 19.25 43.75ZM41.125 43.75C41.125 44.5788 40.7958 45.3737 40.2097 45.9597C39.6237 46.5458 38.8288 46.875 38 46.875C37.1712 46.875 36.3763 46.5458 35.7903 45.9597C35.2042 45.3737 34.875 44.5788 34.875 43.75C34.875 42.9212 35.2042 42.1263 35.7903 41.5403C36.3763 40.9542 37.1712 40.625 38 40.625C38.8288 40.625 39.6237 40.9542 40.2097 41.5403C40.7958 42.1263 41.125 42.9212 41.125 43.75ZM28.625 17.1875V21.875H33.3125C33.7269 21.875 34.1243 22.0396 34.4174 22.3326C34.7104 22.6257 34.875 23.0231 34.875 23.4375C34.875 23.8519 34.7104 24.2493 34.4174 24.5424C34.1243 24.8354 33.7269 25 33.3125 25H28.625V29.6875C28.625 30.1019 28.4604 30.4993 28.1674 30.7924C27.8743 31.0854 27.4769 31.25 27.0625 31.25C26.6481 31.25 26.2507 31.0854 25.9576 30.7924C25.6646 30.4993 25.5 30.1019 25.5 29.6875V25H20.8125C20.3981 25 20.0007 24.8354 19.7076 24.5424C19.4146 24.2493 19.25 23.8519 19.25 23.4375C19.25 23.0231 19.4146 22.6257 19.7076 22.3326C20.0007 22.0396 20.3981 21.875 20.8125 21.875H25.5V17.1875C25.5 16.7731 25.6646 16.3757 25.9576 16.0826C26.2507 15.7896 26.6481 15.625 27.0625 15.625C27.4769 15.625 27.8743 15.7896 28.1674 16.0826C28.4604 16.3757 28.625 16.7731 28.625 17.1875Z"
    fill="#FFFFFF" />
</g>
<defs>
  <clipPath id="clip0_19_738">
    <rect width="50" height="50" fill="white" transform="translate(0.5)" />
  </clipPath>
</defs>
</svg>