<svg width="20" height="20" viewBox="0 0 20 20" fill="none" xmlns="http://www.w3.org/2000/svg">
<path d="M9.99984 12.9165L13.7498 9.1665L12.5623 7.99984L9.99984 10.5623L7.43734 7.99984L6.24984 9.1665L9.99984 12.9165ZM9.99984 18.3332C8.84706 18.3332 7.76373 18.1143 6.74984 17.6765C5.73595 17.2393 4.854 16.6457 4.104 15.8957C3.354 15.1457 2.76039 14.2637 2.32317 13.2498C1.88539 12.2359 1.6665 11.1526 1.6665 9.99984C1.6665 8.84706 1.88539 7.76373 2.32317 6.74984C2.76039 5.73595 3.354 4.854 4.104 4.104C4.854 3.354 5.73595 2.76011 6.74984 2.32234C7.76373 1.88511 8.84706 1.6665 9.99984 1.6665C11.1526 1.6665 12.2359 1.88511 13.2498 2.32234C14.2637 2.76011 15.1457 3.354 15.8957 4.104C16.6457 4.854 17.2393 5.73595 17.6765 6.74984C18.1143 7.76373 18.3332 8.84706 18.3332 9.99984C18.3332 11.1526 18.1143 12.2359 17.6765 13.2498C17.2393 14.2637 16.6457 15.1457 15.8957 15.8957C15.1457 16.6457 14.2637 17.2393 13.2498 17.6765C12.2359 18.1143 11.1526 18.3332 9.99984 18.3332Z" fill="#F24E1E"/>
</svg>
