<svg width="26" height="26" viewBox="0 0 26 26" fill="none" xmlns="http://www.w3.org/2000/svg">
<path d="M17.0183 13L11.3933 7.375L9.64331 9.15625L13.4871 13L9.64331 16.8438L11.3933 18.625L17.0183 13ZM25.1433 13C25.1433 14.7292 24.815 16.3542 24.1583 17.875C23.5025 19.3958 22.6121 20.7187 21.4871 21.8437C20.3621 22.9687 19.0391 23.8592 17.5183 24.515C15.9975 25.1717 14.3725 25.5 12.6433 25.5C10.9141 25.5 9.28914 25.1717 7.76831 24.515C6.24748 23.8592 4.92456 22.9687 3.79956 21.8437C2.67456 20.7188 1.78373 19.3958 1.12706 17.875C0.471227 16.3542 0.14331 14.7292 0.14331 13C0.14331 11.2708 0.471226 9.64583 1.12706 8.125C1.78373 6.60417 2.67456 5.28125 3.79956 4.15625C4.92456 3.03125 6.24748 2.14083 7.76831 1.485C9.28914 0.828336 10.9141 0.500001 12.6433 0.500001C14.3725 0.500001 15.9975 0.828336 17.5183 1.485C19.0391 2.14083 20.3621 3.03125 21.4871 4.15625C22.6121 5.28125 23.5025 6.60417 24.1583 8.125C24.815 9.64583 25.1433 11.2708 25.1433 13Z" fill="#F24E1E"/>
</svg>
