<svg width="24" height="23" viewBox="0 0 24 23" fill="none" xmlns="http://www.w3.org/2000/svg">
  <path
    d="M12.6566 0.355469V1.84867L18.4986 3.79754L22.7422 2.38379L23.4818 4.59905L19.9392 5.78029L23.5565 15.7256C22.9028 16.408 22.1176 16.9508 21.2483 17.3213C20.379 17.6918 19.4436 17.8823 18.4986 17.8813C17.5536 17.8824 16.6182 17.6919 15.7489 17.3214C14.8795 16.9509 14.0943 16.408 13.4406 15.7256L17.0556 5.78029L12.6566 4.3128V20.2181H17.3302V22.5548H5.64632V20.2181H10.3199V4.3128L5.91739 5.78029L9.53471 15.7256C8.8813 16.4081 8.0963 16.951 7.22715 17.3215C6.358 17.692 5.42276 17.8824 4.47793 17.8813C3.53294 17.8824 2.59754 17.6919 1.72821 17.3214C0.858876 16.9509 0.0736604 16.408 -0.580017 15.7256L3.03497 5.78029L-0.50524 4.60022L0.234349 2.38262L4.47793 3.79637L10.3199 1.84867V0.355469H12.6566ZM18.4986 8.65453L16.2109 14.9475C16.9092 15.3405 17.6973 15.5462 18.4986 15.5445C19.3165 15.5445 20.0993 15.3342 20.7863 14.9486L18.4986 8.65336V8.65453ZM4.47793 8.65453L2.19023 14.9475C2.88852 15.3405 3.67663 15.5462 4.47793 15.5445C5.2958 15.5445 6.07862 15.3342 6.76564 14.9486L4.47793 8.65336V8.65453Z"
    fill="#3974B6" />
</svg>