<svg width="31" height="31" viewBox="0 0 31 31" fill="none" xmlns="http://www.w3.org/2000/svg">
  <path
    d="M15.7862 23.5467L15.6635 23.6694L15.5286 23.5467C9.70045 18.2585 5.84775 14.7616 5.84775 11.2156C5.84775 8.7617 7.68821 6.92123 10.1422 6.92123C12.0317 6.92123 13.8722 8.14821 14.5225 9.8169H16.8046C17.4549 8.14821 19.2954 6.92123 21.1849 6.92123C23.6389 6.92123 25.4793 8.7617 25.4793 11.2156C25.4793 14.7616 21.6266 18.2585 15.7862 23.5467ZM21.1849 4.46729C19.05 4.46729 17.001 5.46113 15.6635 7.01939C14.3261 5.46113 12.2771 4.46729 10.1422 4.46729C6.36308 4.46729 3.3938 7.42429 3.3938 11.2156C3.3938 15.8413 7.56551 19.6327 13.8844 25.3627L15.6635 26.9823L17.4427 25.3627C23.7616 19.6327 27.9333 15.8413 27.9333 11.2156C27.9333 7.42429 24.964 4.46729 21.1849 4.46729Z"
    fill="#F24E1E" />
</svg>