<svg width="34" height="35" viewBox="0 0 34 35" fill="none" xmlns="http://www.w3.org/2000/svg">
<path fill-rule="evenodd" clip-rule="evenodd" d="M22.6665 23.3335H28.3332V29.1668H22.6665V23.3335ZM14.1665 23.3335H19.8332V29.1668H14.1665V23.3335ZM5.6665 23.3335H11.3332V29.1668H5.6665V23.3335ZM22.6665 14.5835H28.3332V20.4168H22.6665V14.5835ZM14.1665 14.5835H19.8332V20.4168H14.1665V14.5835ZM5.6665 14.5835H11.3332V20.4168H5.6665V14.5835ZM22.6665 5.8335H28.3332V11.6668H22.6665V5.8335ZM14.1665 5.8335H19.8332V11.6668H14.1665V5.8335ZM5.6665 5.8335H11.3332V11.6668H5.6665V5.8335Z" fill="#F24E1E"/>
<rect x="14.4502" y="5.9502" width="13.8832" height="5.95" fill="#F24E1E"/>
<rect x="14.4502" y="14.5249" width="13.8832" height="5.95" fill="#F24E1E"/>
<rect x="14.4502" y="23.2168" width="13.8832" height="5.95" fill="#F24E1E"/>
</svg>
