<svg width="41" height="40" viewBox="0 0 41 40" fill="none" xmlns="http://www.w3.org/2000/svg">
<g clip-path="url(#clip0_28_829)">
<path d="M24.3281 20C24.3281 22.1143 22.6143 23.8281 20.5 23.8281C18.3857 23.8281 16.6719 22.1143 16.6719 20C16.6719 17.8857 18.3857 16.1719 20.5 16.1719C22.6143 16.1719 24.3281 17.8857 24.3281 20Z" fill="white"/>
<path d="M29.4526 13.2269C29.2686 12.7283 28.975 12.2769 28.5936 11.9064C28.2231 11.525 27.772 11.2314 27.2731 11.0474C26.8684 10.8902 26.2605 10.7031 25.1408 10.6522C23.9296 10.5969 23.5664 10.585 20.5 10.585C17.4333 10.585 17.0701 10.5966 15.8592 10.6519C14.7395 10.7031 14.1313 10.8902 13.7269 11.0474C13.228 11.2314 12.7766 11.525 12.4064 11.9064C12.025 12.2769 11.7314 12.728 11.5471 13.2269C11.3899 13.6316 11.2028 14.2398 11.1519 15.3595C11.0966 16.5704 11.0847 16.9336 11.0847 20.0003C11.0847 23.0667 11.0966 23.4299 11.1519 24.6411C11.2028 25.7608 11.3899 26.3687 11.5471 26.7734C11.7314 27.2723 12.0247 27.7234 12.4061 28.0939C12.7766 28.4753 13.2277 28.7689 13.7266 28.9529C14.1313 29.1104 14.7395 29.2975 15.8592 29.3485C17.0701 29.4037 17.433 29.4153 20.4997 29.4153C23.5667 29.4153 23.9299 29.4037 25.1405 29.3485C26.2602 29.2975 26.8684 29.1104 27.2731 28.9529C28.2747 28.5666 29.0663 27.775 29.4526 26.7734C29.6098 26.3687 29.7969 25.7608 29.8481 24.6411C29.9034 23.4299 29.915 23.0667 29.915 20.0003C29.915 16.9336 29.9034 16.5704 29.8481 15.3595C29.7972 14.2398 29.6101 13.6316 29.4526 13.2269ZM20.5 25.8972C17.2429 25.8972 14.6025 23.2571 14.6025 20C14.6025 16.7429 17.2429 14.1028 20.5 14.1028C23.7568 14.1028 26.3972 16.7429 26.3972 20C26.3972 23.2571 23.7568 25.8972 20.5 25.8972ZM26.6304 15.2478C25.8693 15.2478 25.2522 14.6307 25.2522 13.8696C25.2522 13.1085 25.8693 12.4915 26.6304 12.4915C27.3915 12.4915 28.0085 13.1085 28.0085 13.8696C28.0082 14.6307 27.3915 15.2478 26.6304 15.2478Z" fill="white"/>
<path d="M20.5 0C9.45599 0 0.5 8.95599 0.5 20C0.5 31.044 9.45599 40 20.5 40C31.544 40 40.5 31.044 40.5 20C40.5 8.95599 31.544 0 20.5 0ZM31.9151 24.7348C31.8596 25.9573 31.6652 26.792 31.3813 27.5226C30.7847 29.0652 29.5652 30.2847 28.0226 30.8813C27.2923 31.1652 26.4573 31.3593 25.2351 31.4151C24.0104 31.4709 23.6192 31.4844 20.5003 31.4844C17.3811 31.4844 16.9902 31.4709 15.7652 31.4151C14.543 31.3593 13.708 31.1652 12.9777 30.8813C12.2111 30.593 11.5172 30.141 10.9434 29.5566C10.3593 28.9832 9.90735 28.2889 9.61896 27.5226C9.33514 26.7923 9.14075 25.9573 9.08521 24.7351C9.02875 23.5101 9.01562 23.1189 9.01562 20C9.01562 16.8811 9.02875 16.4899 9.0849 15.2652C9.14044 14.0427 9.33453 13.208 9.61835 12.4774C9.90674 11.7111 10.359 11.0168 10.9434 10.4434C11.5168 9.85901 12.2111 9.40704 12.9774 9.11865C13.708 8.83484 14.5427 8.64075 15.7652 8.5849C16.9899 8.52905 17.3811 8.51562 20.5 8.51562C23.6189 8.51562 24.0101 8.52905 25.2348 8.58521C26.4573 8.64075 27.292 8.83484 28.0226 9.11835C28.7889 9.40674 29.4832 9.85901 30.0569 10.4434C30.641 11.0172 31.0933 11.7111 31.3813 12.4774C31.6655 13.208 31.8596 14.0427 31.9154 15.2652C31.9713 16.4899 31.9844 16.8811 31.9844 20C31.9844 23.1189 31.9713 23.5101 31.9151 24.7348Z" fill="white"/>
</g>
<defs>
<clipPath id="clip0_28_829">
<rect width="40" height="40" fill="white" transform="translate(0.5)"/>
</clipPath>
</defs>
</svg>
