<svg width="129" height="137" viewBox="0 0 129 137" fill="none" xmlns="http://www.w3.org/2000/svg">
<path d="M9.91837 124.81H5.4803V121.191H9.91837C10.5339 121.191 11.0353 121.052 11.4225 120.774C11.8197 120.496 12.1076 120.113 12.2863 119.627C12.465 119.131 12.5544 118.575 12.5544 117.959C12.5544 117.333 12.4601 116.753 12.2714 116.217C12.0927 115.67 11.8098 115.229 11.4225 114.891C11.0453 114.553 10.5439 114.385 9.91837 114.385H6.88023V132.45H2.53152V110.766H9.91837C11.3779 110.766 12.6338 111.074 13.6863 111.689C14.7387 112.305 15.5429 113.154 16.0989 114.236C16.6648 115.308 16.9478 116.539 16.9478 117.929C16.9478 119.329 16.6648 120.545 16.0989 121.578C15.5429 122.601 14.7387 123.395 13.6863 123.961C12.6338 124.527 11.3779 124.81 9.91837 124.81ZM21.4156 110.766H25.2431L29.6663 125.599L34.0745 110.766H37.4552L31.2896 132.45H28.028L21.4156 110.766ZM19.8668 110.766H23.5155L24.0814 125.063V132.45H19.8668V110.766ZM35.7872 110.766H39.4508V132.45H35.2511V125.063L35.7872 110.766ZM50.3077 121.414V124.884H43.0549V121.414H50.3077ZM69.2216 110.766V132.45H64.8878V114.385H58.4243V132.45H54.0607V110.766H69.2216ZM81.6422 116.336V119.806H75.1192V116.336H81.6422ZM84.7548 116.336V132.45H80.5848V116.336H84.7548ZM74.1065 116.336H78.202L77.7999 124.512C77.7502 125.673 77.641 126.691 77.4722 127.565C77.3034 128.439 77.0801 129.188 76.8021 129.814C76.5241 130.439 76.1865 130.946 75.7893 131.333C75.4021 131.72 74.9603 132.003 74.4639 132.182C73.9774 132.36 73.4313 132.45 72.8257 132.45H71.5896L71.5449 128.95L72.0215 128.89C72.2697 128.861 72.4881 128.771 72.6767 128.622C72.8753 128.473 73.0441 128.255 73.1831 127.967C73.3221 127.679 73.4313 127.312 73.5107 126.865C73.6001 126.418 73.6696 125.892 73.7192 125.286C73.7689 124.681 73.8086 123.986 73.8384 123.201L74.1065 116.336ZM94.9713 128.741V121.295C94.9713 120.808 94.9117 120.421 94.7926 120.133C94.6834 119.845 94.5146 119.637 94.2862 119.508C94.0678 119.369 93.7997 119.299 93.482 119.299C93.1246 119.299 92.8267 119.374 92.5885 119.523C92.3502 119.672 92.1715 119.885 92.0523 120.163C91.9431 120.441 91.8885 120.774 91.8885 121.161H87.7036C87.7036 120.466 87.8376 119.811 88.1057 119.195C88.3738 118.57 88.766 118.024 89.2822 117.557C89.8085 117.08 90.434 116.708 91.1587 116.44C91.8835 116.172 92.6977 116.038 93.6012 116.038C94.6734 116.038 95.6266 116.221 96.4606 116.589C97.2946 116.946 97.9548 117.517 98.4413 118.302C98.9278 119.086 99.1711 120.104 99.1711 121.355V128.533C99.1711 129.436 99.2158 130.171 99.3051 130.737C99.4044 131.303 99.5484 131.789 99.737 132.197V132.45H95.5372C95.3486 132.003 95.2046 131.447 95.1053 130.782C95.016 130.107 94.9713 129.426 94.9713 128.741ZM95.4777 122.606L95.4926 125.108H93.9586C93.5615 125.108 93.214 125.172 92.9161 125.301C92.6282 125.43 92.3849 125.614 92.1863 125.852C91.9878 126.081 91.8388 126.349 91.7396 126.656C91.6502 126.964 91.6055 127.292 91.6055 127.639C91.6055 128.027 91.6601 128.354 91.7693 128.622C91.8786 128.89 92.0424 129.094 92.2608 129.233C92.4792 129.372 92.7374 129.441 93.0352 129.441C93.492 129.441 93.8891 129.347 94.2267 129.158C94.5642 128.97 94.8124 128.741 94.9713 128.473C95.1401 128.205 95.1947 127.957 95.1351 127.729L96.0883 129.352C95.9691 129.719 95.8053 130.102 95.5968 130.499C95.3982 130.896 95.1451 131.263 94.8373 131.601C94.5295 131.938 94.1472 132.216 93.6905 132.435C93.2437 132.643 92.7126 132.748 92.097 132.748C91.2332 132.748 90.4439 132.549 89.729 132.152C89.0142 131.755 88.4482 131.199 88.0312 130.484C87.6242 129.769 87.4206 128.92 87.4206 127.937C87.4206 127.123 87.5497 126.388 87.8079 125.733C88.0759 125.068 88.4731 124.507 88.9993 124.05C89.5255 123.584 90.1907 123.226 90.9949 122.978C91.7991 122.73 92.7423 122.606 93.8246 122.606H95.4777ZM108.077 129.278C108.464 129.278 108.797 129.198 109.075 129.039C109.363 128.88 109.581 128.622 109.73 128.265C109.879 127.907 109.958 127.446 109.968 126.88H113.885C113.885 128.091 113.627 129.139 113.111 130.022C112.604 130.896 111.919 131.571 111.056 132.048C110.202 132.514 109.234 132.748 108.151 132.748C107.069 132.748 106.126 132.574 105.322 132.226C104.518 131.879 103.852 131.372 103.326 130.707C102.81 130.042 102.418 129.233 102.15 128.28C101.892 127.317 101.762 126.215 101.762 124.974V123.797C101.762 122.576 101.892 121.484 102.15 120.521C102.418 119.557 102.81 118.743 103.326 118.078C103.852 117.413 104.513 116.907 105.307 116.559C106.111 116.212 107.054 116.038 108.137 116.038C109.298 116.038 110.306 116.281 111.16 116.768C112.014 117.244 112.679 117.949 113.155 118.882C113.642 119.816 113.885 120.967 113.885 122.337H109.968C109.958 121.722 109.884 121.211 109.745 120.804C109.616 120.387 109.412 120.069 109.134 119.85C108.866 119.622 108.509 119.508 108.062 119.508C107.595 119.508 107.218 119.607 106.93 119.806C106.652 119.994 106.439 120.272 106.29 120.64C106.151 120.997 106.057 121.444 106.007 121.98C105.957 122.516 105.932 123.122 105.932 123.797V124.974C105.932 125.698 105.952 126.329 105.992 126.865C106.042 127.391 106.136 127.838 106.275 128.205C106.424 128.563 106.637 128.831 106.915 129.009C107.203 129.188 107.59 129.278 108.077 129.278ZM123.714 116.336V132.45H119.53V116.336H123.714ZM127.855 116.336V119.776H115.404V116.336H127.855Z" fill="#315A89"/>
<g clip-path="url(#clip0_28_569)">
<path d="M23.5432 98.6582H15.7439C7.48329 98.6582 0.77417 92.0392 0.77417 83.8483V37.8466C0.77417 29.6971 7.48329 23.0781 15.7439 23.0781H47.4445C51.5958 23.0781 54.9503 26.3876 54.9503 30.4831C54.9503 34.5785 51.5958 37.888 47.4445 37.888H19.6436C17.505 37.888 15.7439 39.6255 15.7439 41.7353V80.0424C15.7439 82.1522 17.505 83.8897 19.6436 83.8897C21.7821 83.8897 23.5432 82.1522 23.5432 80.0424V75.0782C23.5432 66.9286 30.2524 60.3097 38.513 60.3097V83.8897C38.513 92.0392 31.8038 98.6582 23.5432 98.6582Z" fill="#3974B6"/>
<path d="M77.7195 15.3833V45.4167C77.7195 53.5663 71.0104 60.1852 62.7498 60.1852L37.8002 60.2266H38.4712C34.3199 60.2266 30.5879 61.8813 27.9043 64.5289C25.1787 67.2179 23.5434 70.8996 23.5434 74.9537V59.8957C23.7111 51.8702 30.3363 45.4167 38.5131 45.4167L59.7307 45.3753H52.2248C55.1182 45.3753 57.7599 44.217 59.6887 42.3141C61.5337 40.4939 62.7078 37.9704 62.7917 35.2401V25.5599C62.7078 22.7882 61.5757 20.2647 59.6887 18.4445C57.8857 16.6657 55.4536 15.5487 52.77 15.4246L15.7859 15.466C11.6347 15.466 7.90273 17.1207 5.21908 19.7683C2.45157 22.4159 0.774292 26.0977 0.774292 30.1931V15.4246C0.774292 7.27506 7.48341 0.656114 15.744 0.656114L62.7078 0.614746C71.0104 0.614746 77.7195 7.23369 77.7195 15.3833Z" fill="url(#paint0_linear_28_569)"/>
<path d="M49.9186 47.2781L36.2488 47.3195C33.1878 47.3195 30.2945 48.2296 27.9463 49.8016C30.6719 47.1126 34.4038 45.4579 38.5551 45.4579H52.3088H52.2249C54.2376 45.4579 56.1246 44.9201 57.718 43.9272C57.6341 44.0514 57.5083 44.1341 57.4245 44.2582C56.9632 44.7132 56.502 45.0856 55.9569 45.4579C54.1957 46.6162 52.141 47.2781 49.9186 47.2781Z" fill="white"/>
<path d="M77.7194 15.3833V45.4167C77.7194 50.5464 75.0777 55.0555 71.0522 57.7031C73.7778 55.0142 75.4131 51.3324 75.4131 47.2369V17.2448C75.4131 9.09527 68.704 2.43496 60.4015 2.47632L13.4377 2.51769C10.3766 2.51769 7.48332 3.4278 5.13513 4.9998C7.86071 2.31085 11.6346 0.656114 15.7439 0.656114L62.7078 0.614746C71.0103 0.614746 77.7194 7.23369 77.7194 15.3833Z" fill="white"/>
<path d="M55.9149 45.4165H59.7307H55.9149C55.9149 45.4579 55.9149 45.4579 55.9149 45.4165Z" fill="#00B5E8"/>
<g opacity="0.3">
<path d="M26.0172 96.3408C29.3718 96.3408 32.4748 95.2652 34.9487 93.4036C32.2232 96.6304 28.1138 98.6574 23.5432 98.6574H15.7439C7.48329 98.6574 0.77417 92.0385 0.77417 83.8475V37.8459C0.77417 32.9644 3.16429 28.6621 6.81238 25.9731C4.58998 28.538 3.20623 31.8888 3.20623 35.5706V81.5723C3.20623 89.7218 9.91534 96.3408 18.1759 96.3408H26.0172Z" fill="#1F1E21"/>
<path d="M22.4112 82.7308C23.124 82.0275 23.5434 81.0761 23.5434 80.0005V82.6481C23.5434 83.7236 23.124 84.6751 22.4112 85.3784C21.6984 86.0816 20.7339 86.4953 19.6437 86.4953C17.5052 86.4953 15.744 84.7579 15.744 82.6481V80.0005C15.744 82.1103 17.5052 83.8477 19.6437 83.8477C20.7339 83.8477 21.6984 83.4341 22.4112 82.7308Z" fill="#1F1E21"/>
<path d="M38.5129 60.2681V62.9156C30.2523 62.9156 23.5432 69.5346 23.5432 77.6842V75.0366C23.5432 66.887 30.2523 60.2681 38.5129 60.2681Z" fill="#1F1E21"/>
<path d="M54.9504 30.4821C54.9504 32.5092 54.1118 34.3708 52.77 35.6945C51.4281 37.0183 49.5412 37.8457 47.4865 37.8457H19.6437C17.5052 37.8457 15.744 39.5832 15.744 41.693V39.0868C15.744 36.977 17.5052 35.2395 19.6437 35.2395H47.4446C49.4993 35.2395 51.3862 34.4121 52.728 33.0883C53.7763 32.0541 54.5311 30.689 54.7827 29.1997C54.9085 29.6134 54.9504 30.0271 54.9504 30.4821Z" fill="#1F1E21"/>
</g>
</g>
<g clip-path="url(#clip1_28_569)">
<path d="M84.0676 91.8058L83.1792 94.7536C82.2168 97.9246 79.7368 100.024 76.9607 100.024H68.9655L66.5226 91.8058L60.4151 71.261L53.4193 94.7536C52.494 97.9246 49.977 100.024 47.2009 100.024H34.2827L49.7919 47.9024C50.9023 44.1508 53.7895 41.6943 57.0838 41.6943H64.6348C67.3739 41.6943 69.8169 43.7935 70.7793 46.8752L75.2951 62.2392L84.0676 91.8058Z" fill="url(#paint1_linear_28_569)"/>
<path d="M62.0068 41.6943H57.0838C53.8265 41.6943 50.9023 44.1954 49.7919 47.9024L34.2827 100.024H39.2427L54.7149 47.9024C55.8253 44.1954 58.7495 41.6943 62.0068 41.6943Z" fill="url(#paint2_linear_28_569)"/>
<path d="M84.0676 91.8057L83.1792 94.7535C82.2168 97.9245 79.7369 100.024 76.9608 100.024H68.9656L66.5226 91.8057L60.4152 71.2609L64.5608 57.3262C66.1154 52.056 72.2969 52.056 73.8515 57.3262L75.2951 62.2391L84.0676 91.8057Z" fill="url(#paint3_linear_28_569)"/>
<path d="M121.156 100.024H103.574L95.0237 71.261L88.9163 91.8058L88.028 94.7536C87.0656 97.9246 84.5856 100.024 81.8095 100.024H68.9283L71.3713 91.8058L80.1438 62.2392L84.4005 47.9024C85.511 44.1954 88.4351 41.6943 91.6924 41.6943H99.2434C101.983 41.6943 104.425 43.7935 105.388 46.8752L121.156 100.024Z" fill="url(#paint4_linear_28_569)"/>
<path d="M108.46 57.3263C106.905 52.0561 100.724 52.0561 99.1694 57.3263L95.0237 71.261L88.9163 91.8058L88.028 94.7536C87.0656 97.9246 84.5856 100.024 81.8095 100.024H68.9283L71.3713 91.8058L80.1438 62.2392L84.4005 47.9024C85.511 44.1954 88.4351 41.6943 91.6924 41.6943H99.2434C101.983 41.6943 104.425 43.7935 105.388 46.8752L108.46 57.3263Z" fill="url(#paint5_linear_28_569)"/>
<path d="M84.4745 62.2392L88.7312 47.9024C89.8787 44.1508 92.7658 41.6943 96.0602 41.6943H91.7294C88.4721 41.6943 85.548 44.1508 84.4375 47.9024L80.1438 62.2392L71.3713 91.8058L68.9283 100.024H73.2591L75.702 91.8058L84.4745 62.2392Z" fill="url(#paint6_linear_28_569)"/>
<path d="M121.156 100.024H103.574L95.0238 71.2609L99.1695 57.3262C100.724 52.056 106.906 52.056 108.46 57.3262L121.156 100.024Z" fill="url(#paint7_linear_28_569)"/>
</g>
<path d="M80.506 21.7556C80.506 18.4197 83.2103 15.7153 86.5463 15.7153H97.4188C100.755 15.7153 103.459 18.4197 103.459 21.7556V32.6281C103.459 35.9641 100.755 38.6684 97.4188 38.6684H86.5463C83.2103 38.6684 80.506 35.9641 80.506 32.6281V21.7556Z" fill="url(#paint8_linear_28_569)"/>
<defs>
<linearGradient id="paint0_linear_28_569" x1="63.4542" y1="0.687207" x2="27.5456" y2="86.9765" gradientUnits="userSpaceOnUse">
<stop stop-color="#0740A5"/>
<stop offset="0.4894" stop-color="#00ABE9"/>
<stop offset="0.9995" stop-color="#3974B6"/>
</linearGradient>
<linearGradient id="paint1_linear_28_569" x1="75.6906" y1="105.01" x2="37.1963" y2="68.55" gradientUnits="userSpaceOnUse">
<stop stop-color="#0740A5"/>
<stop offset="0.4894" stop-color="#00ABE9"/>
<stop offset="0.9995" stop-color="#017DC0"/>
</linearGradient>
<linearGradient id="paint2_linear_28_569" x1="34.2845" y1="70.8589" x2="62.0033" y2="70.8589" gradientUnits="userSpaceOnUse">
<stop stop-color="white"/>
<stop offset="1" stop-color="white" stop-opacity="0"/>
</linearGradient>
<linearGradient id="paint3_linear_28_569" x1="59.3547" y1="60.392" x2="70.083" y2="71.4034" gradientUnits="userSpaceOnUse">
<stop stop-color="#0740A5"/>
<stop offset="1" stop-color="#00ABE9"/>
</linearGradient>
<linearGradient id="paint4_linear_28_569" x1="112.547" y1="103.585" x2="41.7117" y2="44.8795" gradientUnits="userSpaceOnUse">
<stop stop-color="#0740A5"/>
<stop offset="0.4894" stop-color="#00ABE9"/>
<stop offset="0.9995" stop-color="#71FF6A"/>
</linearGradient>
<linearGradient id="paint5_linear_28_569" x1="101.131" y1="41.7512" x2="65.1731" y2="98.3292" gradientUnits="userSpaceOnUse">
<stop stop-color="#0740A5"/>
<stop offset="0.4894" stop-color="#00ABE9"/>
<stop offset="0.9995" stop-color="#3974B6"/>
</linearGradient>
<linearGradient id="paint6_linear_28_569" x1="89.6439" y1="43.2055" x2="71.8162" y2="90.4854" gradientUnits="userSpaceOnUse">
<stop stop-color="white"/>
<stop offset="1" stop-color="white" stop-opacity="0"/>
</linearGradient>
<linearGradient id="paint7_linear_28_569" x1="95.2154" y1="58.9301" x2="105.423" y2="71.6198" gradientUnits="userSpaceOnUse">
<stop stop-color="#0740A5"/>
<stop offset="1" stop-color="#00B5E8"/>
</linearGradient>
<linearGradient id="paint8_linear_28_569" x1="86.5463" y1="15.7153" x2="107.711" y2="41.1736" gradientUnits="userSpaceOnUse">
<stop stop-color="#0740A5"/>
<stop offset="0.4894" stop-color="#00ABE9"/>
<stop offset="0.9995" stop-color="#3974B6"/>
</linearGradient>
<clipPath id="clip0_28_569">
<rect width="76.9452" height="98.0431" fill="white" transform="translate(0.774292 0.614746)"/>
</clipPath>
<clipPath id="clip1_28_569">
<rect width="86.8736" height="58.3294" fill="white" transform="translate(34.2827 41.6943)"/>
</clipPath>
</defs>
</svg>
