<svg width="160" height="158" viewBox="0 0 160 158" fill="none" xmlns="http://www.w3.org/2000/svg">
<rect width="159.625" height="158" fill="white"/>
<path d="M25.5485 131.413V138.558H21.4454V118.238H28.3676C30.3773 118.238 31.9776 118.861 33.1685 120.108C34.3688 121.355 34.9689 122.974 34.9689 124.965C34.9689 126.956 34.3781 128.528 33.1964 129.682C32.0148 130.836 30.3773 131.413 28.2839 131.413H25.5485ZM25.5485 127.993H28.3676C29.1492 127.993 29.7539 127.737 30.1819 127.226C30.6099 126.714 30.8239 125.97 30.8239 124.993C30.8239 123.979 30.6053 123.174 30.168 122.578C29.7307 121.974 29.1445 121.667 28.4095 121.657H25.5485V127.993ZM43.0774 118.238L46.9153 132.934L50.7393 118.238H56.0985V138.558H51.9814V133.059L52.3582 124.588L48.297 138.558H45.5058L41.4445 124.588L41.8213 133.059V138.558H37.7182V118.238H43.0774ZM66.3144 131.496H59.4898V128.203H66.3144V131.496ZM84.0526 138.558H79.9495V121.657H73.9205V138.558H69.8174V118.238H84.0526V138.558ZM98.5949 123.458V138.558H94.6454V126.751H92.3007L92.0774 131.413C91.9379 133.832 91.5052 135.623 90.7795 136.786C90.0538 137.939 88.9745 138.53 87.5417 138.558H86.2577L86.2158 135.264L86.6624 135.209C87.1928 135.134 87.5835 134.748 87.8348 134.05C88.086 133.352 88.2488 132.208 88.3232 130.617L88.5884 123.458H98.5949ZM108.643 138.558C108.532 138.326 108.42 137.935 108.308 137.386C107.601 138.353 106.643 138.837 105.433 138.837C104.168 138.837 103.117 138.419 102.279 137.581C101.451 136.744 101.037 135.66 101.037 134.329C101.037 132.748 101.54 131.524 102.545 130.659C103.559 129.794 105.015 129.352 106.913 129.333H108.113V128.119C108.113 127.44 107.997 126.961 107.764 126.681C107.532 126.402 107.192 126.263 106.745 126.263C105.759 126.263 105.266 126.84 105.266 127.993H101.316C101.316 126.598 101.837 125.449 102.879 124.546C103.931 123.634 105.257 123.178 106.857 123.178C108.513 123.178 109.792 123.611 110.695 124.476C111.607 125.332 112.063 126.56 112.063 128.161V135.264C112.081 136.567 112.267 137.586 112.621 138.321V138.558H108.643ZM106.313 135.739C106.75 135.739 107.122 135.651 107.429 135.474C107.736 135.297 107.964 135.088 108.113 134.846V131.706H107.164C106.494 131.706 105.964 131.92 105.573 132.348C105.192 132.776 105.001 133.348 105.001 134.064C105.001 135.181 105.438 135.739 106.313 135.739ZM120.38 135.558C121.525 135.558 122.106 134.813 122.125 133.325H125.837C125.819 134.971 125.312 136.302 124.316 137.316C123.321 138.33 122.037 138.837 120.464 138.837C118.52 138.837 117.036 138.232 116.012 137.023C114.989 135.813 114.468 134.032 114.449 131.678V130.477C114.449 128.105 114.952 126.295 115.956 125.049C116.971 123.802 118.464 123.178 120.436 123.178C122.102 123.178 123.414 123.695 124.372 124.728C125.33 125.751 125.819 127.207 125.837 129.096H122.125C122.116 128.249 121.976 127.598 121.706 127.142C121.436 126.686 120.99 126.458 120.367 126.458C119.678 126.458 119.185 126.705 118.887 127.198C118.589 127.682 118.431 128.626 118.413 130.031V131.566C118.413 132.794 118.473 133.655 118.594 134.148C118.715 134.632 118.915 134.99 119.194 135.223C119.473 135.446 119.869 135.558 120.38 135.558ZM138.942 126.709H135.062V138.558H131.113V126.709H127.261V123.458H138.942V126.709Z" fill="#315A89"/>
<g clip-path="url(#clip0_6_5669)">
<path d="M41.1495 107.319H33.8407C26.0997 107.319 19.8125 101.116 19.8125 93.4405V50.3321C19.8125 42.6951 26.0997 36.4924 33.8407 36.4924H63.5475C67.4377 36.4924 70.5812 39.5938 70.5812 43.4316C70.5812 47.2695 67.4377 50.3709 63.5475 50.3709H37.4951C35.4911 50.3709 33.8407 51.999 33.8407 53.9761V89.874C33.8407 91.851 35.4911 93.4792 37.4951 93.4792C39.4991 93.4792 41.1495 91.851 41.1495 89.874V85.222C41.1495 77.585 47.4367 71.3823 55.1777 71.3823V93.4792C55.1777 101.116 48.8906 107.319 41.1495 107.319Z" fill="#3974B6"/>
<path d="M91.9183 29.282V57.4265C91.9183 65.0635 85.6311 71.2662 77.89 71.2662L54.5097 71.305H55.1384C51.2483 71.305 47.751 72.8556 45.2362 75.3367C42.682 77.8565 41.1495 81.3067 41.1495 85.1058V70.9948C41.3067 63.4741 47.5153 57.4265 55.1777 57.4265L75.0608 57.3878H68.0271C70.7384 57.3878 73.214 56.3023 75.0215 54.5191C76.7505 52.8133 77.8507 50.4486 77.9293 47.89V38.8186C77.8507 36.2212 76.7898 33.8565 75.0215 32.1508C73.3319 30.4838 71.0528 29.4371 68.5379 29.3208L33.88 29.3596C29.9898 29.3596 26.4926 30.9102 23.9777 33.3913C21.3843 35.8723 19.8125 39.3226 19.8125 43.1605V29.3208C19.8125 21.6838 26.0996 15.4811 33.8407 15.4811L77.8507 15.4424C85.6311 15.4424 91.9183 21.645 91.9183 29.282Z" fill="url(#paint0_linear_6_5669)"/>
<path d="M65.8659 59.1709L53.0559 59.2096C50.1873 59.2096 47.476 60.0625 45.2755 61.5356C47.8297 59.0158 51.3269 57.4651 55.2171 57.4651H68.1057H68.0271C69.9133 57.4651 71.6815 56.9612 73.1747 56.0308C73.0962 56.1471 72.9783 56.2246 72.8997 56.3409C72.4674 56.7673 72.0352 57.1162 71.5244 57.4651C69.874 58.5506 67.9485 59.1709 65.8659 59.1709Z" fill="white"/>
<path d="M91.9183 29.282V57.4265C91.9183 62.2336 89.4427 66.4591 85.6704 68.9402C88.2246 66.4204 89.7571 62.9702 89.7571 59.1323V31.0265C89.7571 23.3895 83.4699 17.1481 75.6896 17.1869L31.6795 17.2256C28.811 17.2256 26.0997 18.0785 23.8992 19.5516C26.4533 17.0318 29.9898 15.4811 33.8407 15.4811L77.8508 15.4424C85.6311 15.4424 91.9183 21.645 91.9183 29.282Z" fill="white"/>
<path d="M71.485 57.4265H75.0608H71.485C71.485 57.4653 71.485 57.4653 71.485 57.4265Z" fill="#00B5E8"/>
<g opacity="0.3">
<path d="M43.4679 105.148C46.6115 105.148 49.5193 104.14 51.8377 102.396C49.2835 105.419 45.4326 107.319 41.1495 107.319H33.8407C26.0997 107.319 19.8125 101.116 19.8125 93.4404V50.3321C19.8125 45.7576 22.0523 41.7259 25.4709 39.2061C23.3883 41.6096 22.0916 44.7497 22.0916 48.1999V91.3083C22.0916 98.9453 28.3787 105.148 36.1198 105.148H43.4679Z" fill="#1F1E21"/>
<path d="M40.0886 92.3934C40.7566 91.7344 41.1495 90.8428 41.1495 89.8348V92.3159C41.1495 93.3238 40.7566 94.2155 40.0886 94.8745C39.4205 95.5335 38.5168 95.9212 37.4951 95.9212C35.4911 95.9212 33.8407 94.293 33.8407 92.3159V89.8348C33.8407 91.8119 35.4911 93.4401 37.4951 93.4401C38.5168 93.4401 39.4205 93.0525 40.0886 92.3934Z" fill="#1F1E21"/>
<path d="M55.1776 71.3436V73.8247C47.4366 73.8247 41.1494 80.0273 41.1494 87.6643V85.1833C41.1494 77.5463 47.4366 71.3436 55.1776 71.3436Z" fill="#1F1E21"/>
<path d="M70.5812 43.4315C70.5812 45.3311 69.7953 47.0756 68.5379 48.3161C67.2805 49.5566 65.5122 50.3319 63.5868 50.3319H37.4951C35.4911 50.3319 33.8407 51.9601 33.8407 53.9372V51.4949C33.8407 49.5178 35.4911 47.8896 37.4951 47.8896H63.5475C65.4729 47.8896 67.2412 47.1143 68.4986 45.8738C69.481 44.9046 70.1883 43.6253 70.4241 42.2297C70.5419 42.6174 70.5812 43.0051 70.5812 43.4315Z" fill="#1F1E21"/>
</g>
</g>
<g clip-path="url(#clip1_6_5669)">
<path d="M97.867 100.898L97.0345 103.66C96.1327 106.632 93.8087 108.599 91.2072 108.599H83.7148L81.4255 100.898L75.7022 81.645L69.1464 103.66C68.2792 106.632 65.9205 108.599 63.319 108.599H51.2134L65.7471 59.7555C66.7877 56.2398 69.4933 53.9379 72.5804 53.9379H79.6565C82.2233 53.9379 84.5126 55.905 85.4145 58.7929L89.6463 73.1905L97.867 100.898Z" fill="url(#paint1_linear_6_5669)"/>
<path d="M77.1937 53.9379H72.5804C69.528 53.9379 66.7877 56.2817 65.7471 59.7555L51.2134 108.599H55.8614L70.3604 59.7555C71.401 56.2817 74.1413 53.9379 77.1937 53.9379Z" fill="url(#paint2_linear_6_5669)"/>
<path d="M97.8671 100.898L97.0346 103.66C96.1327 106.632 93.8087 108.599 91.2072 108.599H83.7149L81.4256 100.898L75.7023 81.6451L79.5872 68.5867C81.044 63.648 86.8367 63.648 88.2935 68.5867L89.6463 73.1906L97.8671 100.898Z" fill="url(#paint3_linear_6_5669)"/>
<path d="M132.623 108.599H116.147L108.134 81.6448L102.411 100.897L101.578 103.66C100.677 106.631 98.3525 108.599 95.751 108.599H83.6801L85.9694 100.897L94.1901 73.1904L98.1791 59.7554C99.2197 56.2815 101.96 53.9377 105.012 53.9377H112.088C114.655 53.9377 116.945 55.9049 117.846 58.7928L132.623 108.599Z" fill="url(#paint4_linear_6_5669)"/>
<path d="M120.725 68.5865C119.269 63.6478 113.476 63.6478 112.019 68.5865L108.134 81.6448L102.411 100.897L101.578 103.66C100.677 106.631 98.3525 108.599 95.751 108.599H83.6801L85.9694 100.897L94.1901 73.1904L98.1791 59.7554C99.2197 56.2815 101.96 53.9377 105.012 53.9377H112.088C114.655 53.9377 116.945 55.9049 117.846 58.7928L120.725 68.5865Z" fill="url(#paint5_linear_6_5669)"/>
<path d="M98.2485 73.1904L102.237 59.7554C103.313 56.2397 106.018 53.9377 109.105 53.9377H105.047C101.995 53.9377 99.2544 56.2397 98.2138 59.7554L94.1901 73.1904L85.9694 100.897L83.6801 108.599H87.7384L90.0277 100.897L98.2485 73.1904Z" fill="url(#paint6_linear_6_5669)"/>
<path d="M132.623 108.599H116.147L108.134 81.6449L112.019 68.5866C113.476 63.6479 119.269 63.6479 120.726 68.5866L132.623 108.599Z" fill="url(#paint7_linear_6_5669)"/>
</g>
<path d="M94.5295 35.2538C94.5295 32.1276 97.0638 29.5934 100.19 29.5934H110.379C113.505 29.5934 116.039 32.1276 116.039 35.2538V45.4424C116.039 48.5686 113.505 51.1028 110.379 51.1028H100.19C97.0638 51.1028 94.5295 48.5686 94.5295 45.4424V35.2538Z" fill="url(#paint8_linear_6_5669)"/>
<defs>
<linearGradient id="paint0_linear_6_5669" x1="78.5502" y1="15.5103" x2="44.9001" y2="96.3724" gradientUnits="userSpaceOnUse">
<stop stop-color="#0740A5"/>
<stop offset="0.4894" stop-color="#00ABE9"/>
<stop offset="0.9995" stop-color="#3974B6"/>
</linearGradient>
<linearGradient id="paint1_linear_6_5669" x1="90.017" y1="113.272" x2="53.9437" y2="79.1045" gradientUnits="userSpaceOnUse">
<stop stop-color="#0740A5"/>
<stop offset="0.4894" stop-color="#00ABE9"/>
<stop offset="0.9995" stop-color="#017DC0"/>
</linearGradient>
<linearGradient id="paint2_linear_6_5669" x1="51.2151" y1="81.2681" x2="77.1905" y2="81.2681" gradientUnits="userSpaceOnUse">
<stop stop-color="white"/>
<stop offset="1" stop-color="white" stop-opacity="0"/>
</linearGradient>
<linearGradient id="paint3_linear_6_5669" x1="74.7085" y1="71.4598" x2="84.762" y2="81.7786" gradientUnits="userSpaceOnUse">
<stop stop-color="#0740A5"/>
<stop offset="1" stop-color="#00ABE9"/>
</linearGradient>
<linearGradient id="paint4_linear_6_5669" x1="124.556" y1="111.936" x2="58.1752" y2="56.9225" gradientUnits="userSpaceOnUse">
<stop stop-color="#0740A5"/>
<stop offset="0.4894" stop-color="#00ABE9"/>
<stop offset="0.9995" stop-color="#71FF6A"/>
</linearGradient>
<linearGradient id="paint5_linear_6_5669" x1="113.857" y1="53.991" x2="80.161" y2="107.011" gradientUnits="userSpaceOnUse">
<stop stop-color="#0740A5"/>
<stop offset="0.4894" stop-color="#00ABE9"/>
<stop offset="0.9995" stop-color="#3974B6"/>
</linearGradient>
<linearGradient id="paint6_linear_6_5669" x1="103.093" y1="55.3539" x2="86.3863" y2="99.6601" gradientUnits="userSpaceOnUse">
<stop stop-color="white"/>
<stop offset="1" stop-color="white" stop-opacity="0"/>
</linearGradient>
<linearGradient id="paint7_linear_6_5669" x1="108.314" y1="70.0896" x2="117.88" y2="81.9812" gradientUnits="userSpaceOnUse">
<stop stop-color="#0740A5"/>
<stop offset="1" stop-color="#00B5E8"/>
</linearGradient>
<linearGradient id="paint8_linear_6_5669" x1="100.19" y1="29.5934" x2="120.024" y2="53.4504" gradientUnits="userSpaceOnUse">
<stop stop-color="#0740A5"/>
<stop offset="0.4894" stop-color="#00ABE9"/>
<stop offset="0.9995" stop-color="#3974B6"/>
</linearGradient>
<clipPath id="clip0_6_5669">
<rect width="72.1058" height="91.8767" fill="white" transform="translate(19.8125 15.4424)"/>
</clipPath>
<clipPath id="clip1_6_5669">
<rect width="81.4097" height="54.6608" fill="white" transform="translate(51.2134 53.9379)"/>
</clipPath>
</defs>
</svg>
