<svg width="24" height="26" viewBox="0 0 24 26" fill="none" xmlns="http://www.w3.org/2000/svg">
<path d="M12 13.4454C12.55 13.4454 13.021 13.2412 13.413 12.8329C13.8043 12.4252 14 11.9349 14 11.362C14 10.7891 13.8043 10.2985 13.413 9.89014C13.021 9.4825 12.55 9.27869 12 9.27869C11.45 9.27869 10.9793 9.4825 10.588 9.89014C10.196 10.2985 10 10.7891 10 11.362C10 11.9349 10.196 12.4252 10.588 12.8329C10.9793 13.2412 11.45 13.4454 12 13.4454ZM12 23.4714C11.8667 23.4714 11.7333 23.4453 11.6 23.3933C11.4667 23.3412 11.35 23.2717 11.25 23.1849C8.81667 20.9454 7 18.8665 5.8 16.9485C4.6 15.0297 4 13.237 4 11.5704C4 8.96619 4.80433 6.89153 6.413 5.34639C8.021 3.80126 9.88333 3.02869 12 3.02869C14.1167 3.02869 15.979 3.80126 17.587 5.34639C19.1957 6.89153 20 8.96619 20 11.5704C20 13.237 19.4 15.0297 18.2 16.9485C17 18.8665 15.1833 20.9454 12.75 23.1849C12.65 23.2717 12.5333 23.3412 12.4 23.3933C12.2667 23.4453 12.1333 23.4714 12 23.4714Z" fill="#F24E1E"/>
</svg>
