<svg class="icon" width="19" height="19" viewBox="0 0 19 19" fill="none" xmlns="http://www.w3.org/2000/svg">
  <path d="M17.7906 9.64017C17.5194 9.64017 17.278 9.54253 17.0664 9.34725C16.8542 9.15265 16.7311 8.91126 16.6972 8.62308C16.4769 7.04658 15.8117 5.703 14.7017 4.59234C13.591 3.48235 12.2474 2.81717 10.6709 2.5968C10.3828 2.56289 10.1414 2.44423 9.94677 2.24082C9.75149 2.0374 9.65385 1.7916 9.65385 1.50342C9.65385 1.21525 9.75556 0.973516 9.95897 0.778234C10.1624 0.58363 10.3997 0.50328 10.6709 0.537183C12.8068 0.774505 14.6291 1.64751 16.1378 3.1562C17.6465 4.66489 18.5195 6.48718 18.7568 8.62308C18.7907 8.89431 18.7101 9.13163 18.5148 9.33505C18.3202 9.53846 18.0788 9.64017 17.7906 9.64017ZM13.5442 9.64017C13.3239 9.64017 13.1289 9.56389 12.9594 9.41133C12.7899 9.25876 12.6627 9.05535 12.578 8.80107C12.4424 8.30948 12.184 7.8728 11.803 7.49105C11.4212 7.10998 10.9845 6.85164 10.4929 6.71603C10.2387 6.63127 10.0353 6.50413 9.88269 6.33462C9.73013 6.1651 9.65385 5.96168 9.65385 5.72436C9.65385 5.38533 9.77251 5.1097 10.0098 4.89746C10.2472 4.68591 10.5099 4.61403 10.7981 4.68184C11.7474 4.90221 12.5654 5.3555 13.2523 6.0417C13.9385 6.72857 14.3918 7.54666 14.6122 8.49594C14.68 8.78412 14.6037 9.04687 14.3833 9.28419C14.163 9.52151 13.8833 9.64017 13.5442 9.64017ZM17.7397 18.794C15.553 18.794 13.4215 18.3065 11.3453 17.3314C9.26837 16.3571 7.42912 15.0687 5.82754 13.4665C4.22528 11.8649 2.93696 10.0257 1.96258 7.94875C0.987527 5.87252 0.5 3.74103 0.5 1.55428C0.5 1.24915 0.601709 0.994875 0.805128 0.791456C1.00855 0.588037 1.26282 0.486328 1.56795 0.486328H5.68718C5.9245 0.486328 6.1364 0.56261 6.32286 0.715174C6.50933 0.867738 6.61952 1.06268 6.65342 1.3L7.31453 4.85983C7.34843 5.09715 7.34436 5.31312 7.30232 5.50772C7.25961 5.703 7.16197 5.87693 7.0094 6.02949L4.56838 8.52137C5.28034 9.74188 6.1703 10.8861 7.23825 11.9541C8.3062 13.022 9.48433 13.9459 10.7726 14.7256L13.1628 12.3355C13.3154 12.1829 13.5147 12.0683 13.7609 11.9917C14.0063 11.9158 14.2477 11.8947 14.485 11.9286L17.994 12.6406C18.2313 12.6915 18.4263 12.8057 18.5788 12.9834C18.7314 13.1617 18.8077 13.3695 18.8077 13.6068V17.7261C18.8077 18.0312 18.706 18.2855 18.5026 18.4889C18.2991 18.6923 18.0449 18.794 17.7397 18.794Z" fill="#F3520B"></path>
</svg>