<svg width="64" height="64" viewBox="0 0 64 64" fill="none" xmlns="http://www.w3.org/2000/svg">
<path d="M55.9733 32.2738C55.9733 31.7163 55.6993 31.2262 55.2822 30.9187L55.291 30.9036L49.4169 27.5123L52.7981 21.6558L52.7868 21.6489C52.8936 21.4075 52.942 21.1444 52.9281 20.8808C52.9142 20.6172 52.8384 20.3607 52.7068 20.1319C52.5742 19.9033 52.3896 19.7092 52.1679 19.5653C51.9462 19.4215 51.6938 19.332 51.431 19.304V19.2877H44.6472V12.5233H44.6333C44.6051 12.2609 44.5154 12.0088 44.3716 11.7875C44.2278 11.5662 44.0338 11.3819 43.8055 11.2495C43.5764 11.1175 43.3193 11.0415 43.0552 11.0279C42.7911 11.0142 42.5275 11.0631 42.2859 11.1707L42.2777 11.1562L36.3047 14.6049L32.9972 8.87565L32.9852 8.88258C32.8295 8.66947 32.6258 8.49602 32.3906 8.37628C32.1554 8.25654 31.8953 8.19388 31.6314 8.19336C31.0738 8.19336 30.5831 8.46741 30.2762 8.88447L30.2611 8.87565L26.8988 14.6994L21.1091 11.3566L21.1022 11.3686C20.8608 11.2618 20.5977 11.2133 20.3341 11.2272C20.0705 11.2411 19.8139 11.317 19.5851 11.4486C19.3564 11.581 19.1622 11.7656 19.0182 11.9873C18.8743 12.209 18.7847 12.4615 18.7567 12.7243H18.7397V19.4489H12.0541V19.4622C11.7917 19.4904 11.5396 19.5801 11.3183 19.7239C11.097 19.8677 10.9127 20.0616 10.7803 20.29C10.6486 20.519 10.5728 20.7758 10.559 21.0396C10.5452 21.3035 10.5938 21.5668 10.7009 21.8083L10.6864 21.8171L13.9914 27.5419L8.07316 30.959L8.08009 30.971C7.86698 31.1267 7.69353 31.3304 7.57379 31.5656C7.45405 31.8008 7.39139 32.0609 7.39087 32.3249C7.39087 32.8824 7.66492 33.3732 8.08198 33.68L8.07316 33.6951L13.9473 37.0864L10.5661 42.9429L10.5774 42.9492C10.4706 43.1906 10.4222 43.4537 10.4361 43.7173C10.45 43.9809 10.5258 44.2374 10.6574 44.4662C10.79 44.6948 10.9746 44.8889 11.1963 45.0327C11.4179 45.1766 11.6704 45.2661 11.9332 45.2941V45.3111H18.7164V52.0747H18.7302C18.7882 52.5888 19.0761 53.0702 19.5581 53.3486C19.7873 53.4805 20.0443 53.5563 20.3084 53.57C20.5725 53.5837 20.836 53.5348 21.0776 53.4274L21.0858 53.4418L27.0588 49.9932L30.3663 55.7225L30.3783 55.7155C30.534 55.9286 30.7377 56.1021 30.9729 56.2218C31.2081 56.3416 31.4682 56.4042 31.7322 56.4047C32.2897 56.4047 32.7805 56.1307 33.0873 55.7143L33.1018 55.7225L36.4641 49.8987L42.2544 53.2415L42.2614 53.2295C42.5027 53.3363 42.7659 53.3848 43.0294 53.3708C43.293 53.3569 43.5496 53.2811 43.7784 53.1495C44.0071 53.0171 44.2014 52.8325 44.3453 52.6108C44.4893 52.3891 44.5789 52.1366 44.6069 51.8738H44.6239V45.1498H51.3101V45.1366C51.5725 45.1083 51.8246 45.0187 52.0459 44.8748C52.2672 44.731 52.4515 44.5371 52.5839 44.3087C52.7155 44.0796 52.7913 43.8227 52.8051 43.5588C52.8189 43.2949 52.7703 43.0314 52.6633 42.7898L52.6778 42.7816L49.3728 37.0568L55.291 33.6397L55.2841 33.6277C55.4973 33.4721 55.6708 33.2684 55.7905 33.0332C55.9103 32.7979 55.9729 32.5378 55.9733 32.2738ZM27.7222 39.4527L21.5192 36.7122L24.2566 41.4529L22.7093 42.3463L18.5123 35.078L20.103 34.1588L26.1069 36.7809L23.4704 32.2146L25.0183 31.3213L29.2141 38.5896L27.7222 39.4527ZM30.653 37.7605L26.4566 30.4916L31.6005 27.5224L32.3867 28.8845L28.7901 30.9603L29.6708 32.4862L33.1906 30.4544L33.9769 31.8152L30.4571 33.8482L31.4134 35.5045L35.0101 33.4286L35.7963 34.7907L30.653 37.7605ZM42.5638 30.8841L38.407 26.629L40.0242 32.3495L38.3793 33.2995L32.1014 27.2332L33.8339 26.2328L38.1418 30.7486L36.4931 24.6975L37.7027 23.9994L42.1083 28.4592L40.3506 22.4704L42.0831 21.47L44.2093 29.9347L42.5638 30.8841Z" fill="#F24E1E"/>
</svg>
