<svg width="41" height="40" viewBox="0 0 41 40" fill="none" xmlns="http://www.w3.org/2000/svg">
<path d="M40.5 20C40.5 25.3043 38.3929 30.3914 34.6421 34.1421C30.8914 37.8929 25.8043 40 20.5 40C15.1957 40 10.1086 37.8929 6.35786 34.1421C2.60714 30.3914 0.5 25.3043 0.5 20C0.5 14.6957 2.60714 9.60859 6.35786 5.85786C10.1086 2.10714 15.1957 0 20.5 0C25.8043 0 30.8914 2.10714 34.6421 5.85786C38.3929 9.60859 40.5 14.6957 40.5 20ZM21.2175 14.765C19.2725 15.575 15.3825 17.25 9.5525 19.79C8.6075 20.165 8.11 20.535 8.065 20.895C7.99 21.5025 8.7525 21.7425 9.79 22.07L10.2275 22.2075C11.2475 22.54 12.6225 22.9275 13.335 22.9425C13.985 22.9575 14.7075 22.6925 15.505 22.1425C20.9525 18.465 23.765 16.6075 23.94 16.5675C24.065 16.5375 24.24 16.5025 24.355 16.6075C24.4725 16.71 24.46 16.9075 24.4475 16.96C24.3725 17.2825 21.38 20.0625 19.8325 21.5025C19.35 21.9525 19.0075 22.27 18.9375 22.3425C18.7834 22.5 18.6267 22.6551 18.4675 22.8075C17.5175 23.7225 16.8075 24.4075 18.505 25.5275C19.3225 26.0675 19.9775 26.51 20.63 26.955C21.34 27.44 22.05 27.9225 22.97 28.5275C23.2025 28.6775 23.4275 28.84 23.645 28.995C24.4725 29.585 25.22 30.115 26.1375 30.03C26.6725 29.98 27.225 29.48 27.505 27.98C28.1675 24.4375 29.47 16.765 29.77 13.6025C29.7883 13.3396 29.7774 13.0755 29.7375 12.815C29.714 12.6048 29.6122 12.4111 29.4525 12.2725C29.225 12.1155 28.9538 12.0341 28.6775 12.04C27.9275 12.0525 26.77 12.455 21.2175 14.765Z" fill="#F8F8F8"/>
</svg>
