<svg width="41" height="40" viewBox="0 0 41 40" fill="none" xmlns="http://www.w3.org/2000/svg">
<g clip-path="url(#clip0_28_826)">
<path d="M20.5 0C9.45468 0 0.5 8.95427 0.5 20C0.5 31.0457 9.45468 40 20.5 40C31.5453 40 40.5 31.0457 40.5 20C40.5 8.95427 31.5453 0 20.5 0ZM30.6451 22.1631C31.5772 23.0736 32.5634 23.9304 33.4003 24.935C33.771 25.3794 34.1205 25.839 34.3864 26.3558C34.7662 27.0928 34.4233 27.901 33.7636 27.9448L29.6662 27.9439C28.608 28.0315 27.7659 27.6047 27.0559 26.8812C26.4892 26.3047 25.9633 25.6888 25.4174 25.0926C25.1944 24.8479 24.9595 24.6175 24.6796 24.4362C24.1211 24.0728 23.6358 24.1841 23.3158 24.7677C22.9896 25.3614 22.9151 26.0194 22.884 26.6803C22.8394 27.6464 22.5481 27.8989 21.5787 27.9443C19.5073 28.0413 17.5418 27.7271 15.7151 26.6828C14.1037 25.7616 12.8564 24.4616 11.7696 22.9897C9.65315 20.1203 8.03228 16.971 6.57591 13.7314C6.24813 13.0017 6.48793 12.6114 7.29284 12.5962C8.63013 12.5704 9.96742 12.5737 11.3047 12.595C11.849 12.6036 12.2091 12.915 12.4182 13.4285C13.1408 15.2065 14.0268 16.8982 15.1369 18.4671C15.4328 18.8849 15.7348 19.3015 16.1649 19.5965C16.6395 19.9223 17.0013 19.8146 17.2251 19.2847C17.3683 18.9479 17.4301 18.5878 17.4612 18.2269C17.5676 16.9907 17.5803 15.7549 17.3962 14.5236C17.2816 13.753 16.8482 13.2554 16.0802 13.1098C15.689 13.0357 15.7462 12.8908 15.9365 12.6674C16.2668 12.2811 16.5761 12.0421 17.1944 12.0421L21.8238 12.0413C22.5534 12.1846 22.7171 12.5119 22.8161 13.2469L22.8202 18.3914C22.8116 18.6758 22.963 19.5188 23.4737 19.705C23.8829 19.84 24.153 19.5118 24.3977 19.2528C25.5079 18.0747 26.2989 16.6842 27.0072 15.245C27.3198 14.6103 27.5895 13.9536 27.8514 13.2956C28.0462 12.809 28.349 12.5696 28.8982 12.5778L33.3561 12.5831C33.4874 12.5831 33.6208 12.5843 33.7509 12.6069C34.5023 12.7353 34.7081 13.0586 34.4757 13.7915C34.1098 14.943 33.399 15.9022 32.7042 16.8638C31.9594 17.8934 31.1652 18.887 30.4278 19.921C29.7501 20.8663 29.8037 21.3422 30.6451 22.1631Z" fill="white"/>
</g>
<defs>
<clipPath id="clip0_28_826">
<rect width="40" height="40" fill="white" transform="translate(0.5)"/>
</clipPath>
</defs>
</svg>
