<svg class="icon" width="23" height="24" viewBox="0 0 23 24" fill="none" xmlns="http://www.w3.org/2000/svg">
  <g clip-path="url(#clip0_19_743)">
    <path d="M11.9939 12.385V9.20787C11.9939 8.92434 11.8982 8.68651 11.7067 8.49438C11.5146 8.30292 11.2768 8.20719 10.9932 8.20719C10.7097 8.20719 10.4722 8.30292 10.2807 8.49438C10.0886 8.68651 9.99255 8.92434 9.99255 9.20787V12.2099C9.99255 12.5435 10.0509 12.852 10.1677 13.1355C10.2844 13.4191 10.4595 13.6776 10.693 13.9111L12.8195 16.0375C13.0196 16.2376 13.2574 16.3377 13.5329 16.3377C13.8078 16.3377 14.0453 16.2376 14.2454 16.0375C14.4289 15.8374 14.5206 15.5999 14.5206 15.325C14.5206 15.0495 14.4289 14.82 14.2454 14.6365L11.9939 12.385ZM10.9932 4.20448C10.7097 4.20448 10.4722 4.30021 10.2807 4.49167C10.0886 4.6838 9.99255 4.92163 9.99255 5.20516C9.99255 5.48868 10.0886 5.72651 10.2807 5.91864C10.4722 6.1101 10.7097 6.20583 10.9932 6.20583C11.2768 6.20583 11.5146 6.1101 11.7067 5.91864C11.8982 5.72651 11.9939 5.48868 11.9939 5.20516C11.9939 4.92163 11.8982 4.6838 11.7067 4.49167C11.5146 4.30021 11.2768 4.20448 10.9932 4.20448ZM18.9986 12.2099C18.9986 11.9264 18.9026 11.6885 18.7104 11.4964C18.519 11.305 18.2815 11.2092 17.998 11.2092C17.7144 11.2092 17.4769 11.305 17.2855 11.4964C17.0934 11.6885 16.9973 11.9264 16.9973 12.2099C16.9973 12.4934 17.0934 12.7309 17.2855 12.9224C17.4769 13.1145 17.7144 13.2106 17.998 13.2106C18.2815 13.2106 18.519 13.1145 18.7104 12.9224C18.9026 12.7309 18.9986 12.4934 18.9986 12.2099ZM10.9932 18.214C10.7097 18.214 10.4722 18.31 10.2807 18.5022C10.0886 18.6936 9.99255 18.9311 9.99255 19.2146C9.99255 19.4982 10.0886 19.7357 10.2807 19.9271C10.4722 20.1193 10.7097 20.2153 10.9932 20.2153C11.2768 20.2153 11.5146 20.1193 11.7067 19.9271C11.8982 19.7357 11.9939 19.4982 11.9939 19.2146C11.9939 18.9311 11.8982 18.6936 11.7067 18.5022C11.5146 18.31 11.2768 18.214 10.9932 18.214ZM4.98916 12.2099C4.98916 11.9264 4.89343 11.6885 4.70197 11.4964C4.50984 11.305 4.27201 11.2092 3.98848 11.2092C3.70496 11.2092 3.46713 11.305 3.275 11.4964C3.08354 11.6885 2.98781 11.9264 2.98781 12.2099C2.98781 12.4934 3.08354 12.7309 3.275 12.9224C3.46713 13.1145 3.70496 13.2106 3.98848 13.2106C4.27201 13.2106 4.50984 13.1145 4.70197 12.9224C4.89343 12.7309 4.98916 12.4934 4.98916 12.2099ZM10.9932 22.2167C9.60895 22.2167 8.30807 21.9538 7.09058 21.4281C5.87309 20.9031 4.81404 20.1903 3.91343 19.2897C3.01282 18.3891 2.30001 17.33 1.77498 16.1125C1.24929 14.8951 0.98645 13.5942 0.98645 12.2099C0.98645 10.8256 1.24929 9.52475 1.77498 8.30726C2.30001 7.08977 3.01282 6.03072 3.91343 5.13011C4.81404 4.2295 5.87309 3.51635 7.09058 2.99066C8.30807 2.46564 9.60895 2.20312 10.9932 2.20312C12.3775 2.20312 13.6784 2.46564 14.8959 2.99066C16.1134 3.51635 17.1724 4.2295 18.073 5.13011C18.9736 6.03072 19.6864 7.08977 20.2115 8.30726C20.7372 9.52475 21 10.8256 21 12.2099C21 13.5942 20.7372 14.8951 20.2115 16.1125C19.6864 17.33 18.9736 18.3891 18.073 19.2897C17.1724 20.1903 16.1134 20.9031 14.8959 21.4281C13.6784 21.9538 12.3775 22.2167 10.9932 22.2167Z" fill="#F3520B"></path>
  </g>
  <defs>
    <clipPath id="clip0_19_743">
      <rect width="22.084" height="22.084" fill="white" transform="translate(0.146118 0.973145)"></rect>
    </clipPath>
  </defs>
</svg>