<svg width="41" height="40" viewBox="0 0 41 40" fill="none" xmlns="http://www.w3.org/2000/svg">
<path fill-rule="evenodd" clip-rule="evenodd" d="M20.5 40C31.5457 40 40.5 31.0457 40.5 20C40.5 8.95431 31.5457 0 20.5 0C9.45431 0 0.5 8.95431 0.5 20C0.5 31.0457 9.45431 40 20.5 40ZM20.4942 7.1283C23.9357 7.1283 27.1741 8.45569 29.6058 10.8691C32.0375 13.2826 33.5 16.4833 33.5 19.8908C33.5 26.9243 27.592 32.6476 20.4942 32.6476H20.4884C18.3295 32.6476 16.2112 32.1132 14.3308 31.0961L7.5 32.8717L9.32812 26.2635C8.20223 24.327 7.61027 22.1319 7.61027 19.8851C7.61027 12.8516 13.3906 7.1283 20.4942 7.1283ZM15.0388 29.0217C16.6812 29.9871 18.5674 30.4985 20.4942 30.4985C26.3964 30.4985 31.3237 25.7406 31.3237 19.8908C31.3295 17.0579 30.0875 14.3974 28.0679 12.3919C26.0482 10.3864 23.3612 9.28316 20.5 9.28316C14.592 9.28316 9.78661 14.0411 9.78661 19.8851C9.78661 21.8905 10.3496 23.8385 11.4232 25.5279L11.6786 25.9302L10.5991 29.8434L14.65 28.7918L15.0388 29.0217ZM24.1679 21.5228C24.4638 21.6262 26.0482 22.3962 26.3674 22.5571C26.4197 22.5825 26.4691 22.6059 26.5156 22.6279C26.7532 22.7403 26.9137 22.8162 26.9768 22.9364C27.058 23.0685 27.058 23.7064 26.7911 24.4534C26.5241 25.2004 25.2415 25.8785 24.6205 25.9704C23.5991 26.1198 22.7982 26.0451 20.7554 25.1717C17.7452 23.8821 15.7113 21.003 15.3144 20.4413C15.2851 20.3998 15.2648 20.3709 15.2536 20.3563C15.2495 20.3508 15.2448 20.3444 15.2394 20.3371C15.0377 20.0649 13.942 18.5859 13.942 17.0579C13.942 15.5924 14.6663 14.8239 15.0029 14.4668C15.0266 14.4416 15.0484 14.4185 15.0679 14.3974C15.3638 14.0813 15.7121 14.0009 15.9268 14.0009H15.9268C16.1416 14.0009 16.3563 14.0009 16.542 14.0124C16.5659 14.0138 16.5909 14.0137 16.6167 14.0137C16.804 14.0133 17.0379 14.0129 17.2674 14.5583C17.3463 14.7467 17.4581 15.0164 17.5785 15.307C17.8659 16.0001 18.2026 16.8124 18.2598 16.9257C18.3411 17.0866 18.3933 17.2705 18.2888 17.4831C18.0152 18.0249 17.7325 18.3178 17.5319 18.5255C17.2815 18.7849 17.1592 18.9116 17.3429 19.2243C18.5906 21.3446 19.8326 22.0802 21.7246 23.0168C22.0438 23.1777 22.2353 23.149 22.421 22.9364C22.6125 22.718 23.2277 22.0055 23.4424 21.6837C23.6571 21.3619 23.8719 21.4136 24.1679 21.5228Z" fill="white"/>
</svg>
