<svg width="115" height="115" viewBox="0 0 115 115" fill="none" xmlns="http://www.w3.org/2000/svg">
  <path d="M50.3691 7.86615C49.4885 7.86303 48.6052 7.86392 47.7195 7.86771C43.4563 7.88752 39.125 7.99952 34.7567 8.16161L36.0205 13.7042C40.5696 13.1899 45.5568 12.8069 50.5437 12.6154C53.2454 12.5116 55.9306 12.4569 58.5353 12.4707C66.3494 12.5114 73.4392 13.1676 78.0778 14.9649L80.0612 15.7339L79.1757 17.6677C72.7051 31.803 71.2086 45.4401 72.2226 58.8204C72.7231 42.941 79.3238 28.8174 87.9889 10.7115C76.1979 8.7521 63.5782 7.91001 50.3691 7.86592V7.86615ZM56.6111 16.503C54.665 16.5045 52.6812 16.544 50.6975 16.6201C41.419 16.9764 32.1728 18.0651 26.1466 19.3134C32.8781 31.7997 38.3236 44.3148 41.84 56.5152C42.2774 56.5006 42.7153 56.504 43.1524 56.5252C44.047 56.5691 44.9318 56.6904 45.7964 56.8792C42.2172 45.4354 38.1404 34.8808 33.0725 24.3423L31.9274 21.9612L34.5293 21.5007C41.0656 20.3434 47.8121 19.8954 54.2331 19.8934C54.661 19.8934 55.0881 19.8949 55.5129 19.8987C59.5929 19.9343 63.525 20.1454 67.1681 20.4631L69.6293 20.678L68.9115 23.042C64.7478 36.7493 63.9322 51.4703 66.2864 65.4762C66.3256 65.5125 66.3652 65.5486 66.4035 65.5853C67.2525 65.2879 68.0467 64.9846 68.787 64.6604C66.9492 49.6547 67.7635 34.1737 74.6271 18.0805C70.7969 17.1046 64.9582 16.5945 58.5426 16.5143C57.8988 16.5064 57.2549 16.5027 56.6111 16.5032V16.503ZM88.884 18.1473C81.9914 32.7438 77.0959 44.4408 76.2934 57.0683C80.755 42.1944 89.3787 28.8611 99.2057 20.2948C95.7946 19.444 92.3513 18.7276 88.884 18.1473ZM23.2091 22.2729C19.032 23.1341 14.9516 24.2274 11.0048 25.7379C12.9255 27.4033 16.3976 30.5016 20.6102 34.6194C22.5491 32.6237 24.5265 30.6521 26.589 28.8593C25.4966 26.6464 24.3698 24.4507 23.2091 22.2729ZM54.8314 23.9388C51.7988 23.9241 48.6945 24.011 45.5791 24.2267C45.2522 27.2731 43.4505 30.1231 41.2985 32.9259C44.7344 41.0459 47.7017 49.3319 50.3731 58.1292C54.4644 59.336 58.5121 60.7626 61.7909 62.4719C60.573 53.0184 60.7396 43.3317 62.3209 33.8588C59.4519 30.8953 57.9575 27.6044 57.8377 23.9862C56.8358 23.9595 55.8336 23.9437 54.8314 23.9388ZM95.3588 29.9472C89.8525 36.471 85.0006 44.6418 81.6944 53.5292C87.7649 44.8941 95.2297 38.1588 103.176 33.401C100.587 32.2119 97.981 31.0605 95.3588 29.9472ZM28.3972 32.6099C25.1477 35.5463 21.937 39.0708 18.5934 42.4284C25.7827 46.7014 31.9062 51.7617 36.9015 57.4933C37.2117 57.3762 37.525 57.2709 37.84 57.1749C35.5026 49.1379 32.2992 40.9137 28.3972 32.6099ZM80.3623 60.3868C76.7114 64.7927 73.2742 67.1188 68.5414 68.9746C69.0738 71.0275 68.2831 73.3843 66.4632 75.1869C65.3926 76.247 64.0473 77.4554 62.0804 78.2407C62.3642 78.4087 62.6538 78.5667 62.9487 78.7142C65.7017 80.088 70.5652 79.645 75.0835 77.5901C79.5879 75.5416 83.6117 72.0032 85.1031 68.4186C85.8505 66.4036 85.3168 65.3527 84.0082 63.8114C83.0767 62.7148 81.716 61.6094 80.3623 60.387V60.3868ZM42.4931 60.5172C40.1073 60.4954 37.6844 61.1839 35.682 62.6904C32.8343 64.833 30.6389 68.654 30.6193 75.1444V75.1889L30.6171 75.2335C29.9669 88.9003 30.9733 95.2057 32.9672 98.6268C34.7271 101.647 37.6541 103.092 41.9358 105.751C42.1397 105.215 42.3522 104.556 42.5514 103.725C43.0584 101.61 43.4779 98.705 43.7438 95.4921C44.2757 89.0667 44.198 81.3512 43.3085 75.7992L42.8384 72.8624L45.7365 73.5293C52.7758 75.1486 56.8025 75.3399 59.1404 74.9275C61.4788 74.5147 62.2712 73.6978 63.6428 72.3394C64.9319 71.0631 64.9079 70.6038 64.6349 69.8855C64.3617 69.167 63.2658 67.9829 61.4064 66.85C57.6874 64.5843 51.3679 62.4835 45.4611 60.9169C44.4923 60.6605 43.4952 60.5262 42.4931 60.5172ZM84.5974 75.9731C82.3679 78.1449 79.6244 79.9277 76.7428 81.2383C72.0708 83.3629 66.9318 84.3348 62.6684 82.92C61.1633 83.4802 60.2889 84.1239 59.8478 84.6567C59.2426 85.3879 59.2048 85.9259 59.4098 86.6963C59.6147 87.4666 60.2259 88.3813 60.9816 89.0395C61.737 89.6977 62.635 90.0397 62.9764 90.0557C73.3953 90.5504 77.9046 87.5604 83.5224 84.0923C85.1607 83.081 85.7877 81.0323 85.6307 78.9866C85.5521 77.9637 85.2545 77.0025 84.9109 76.3971C84.8255 76.2426 84.7201 76.1 84.5974 75.9731ZM47.5948 77.9984C48.202 83.58 48.212 90.0918 47.7378 95.8227C47.4601 99.1786 47.0308 102.231 46.4488 104.659C46.1956 105.716 45.9171 106.652 45.5804 107.477L78.2435 106.038C77.8747 104.669 77.4989 103.294 77.1233 101.918C75.8683 102.336 74.5857 102.665 73.2847 102.903L73.2945 103.066L71.4429 103.181C70.3026 103.318 69.1157 103.393 67.8841 103.402L49.2122 104.562L49.7673 101.978C51.5367 93.7382 51.6999 86.4834 50.6085 78.5468C49.6004 78.3836 48.5956 78.2008 47.5946 77.9984H47.5948ZM54.7136 79.0413C55.5926 86.1514 55.4869 92.9373 54.1779 100.238L58.4671 99.9719C57.7945 98.9793 57.3323 97.8595 57.1089 96.6815C56.8204 95.1496 56.9809 93.4445 57.9831 92.0347C58.0274 91.9721 58.0752 91.9122 58.1227 91.8519C56.9546 90.7731 55.9789 89.3888 55.5367 87.7274C55.066 85.9586 55.36 83.793 56.7607 82.1009C57.2236 81.542 57.7831 81.0375 58.4402 80.5832C57.859 80.1201 57.3496 79.6292 56.9096 79.1177C56.2274 79.1224 55.4969 79.097 54.7136 79.0413ZM84.2525 88.345C79.0299 91.5186 73.162 94.5518 62.7862 94.0593C62.4476 94.0427 62.111 93.9969 61.7802 93.9223C61.5057 94.0455 61.3592 94.202 61.2499 94.3559C61.0355 94.6576 60.9088 95.202 61.0475 95.9396C61.3254 97.4152 62.723 99.0321 64.0244 99.1835C73.239 100.255 79.6057 97.2406 83.4714 93.7335C85.2527 92.1175 85.2678 91.0839 85.0055 89.9593C84.8742 89.3975 84.5847 88.8529 84.2525 88.345ZM82.7645 99.269C82.1459 99.6567 81.511 100.018 80.8614 100.351C81.2288 101.698 81.5971 103.046 81.9607 104.393L86.396 103.598C85.2516 102.621 84.356 101.604 83.6373 100.593C83.3162 100.141 83.0332 99.7021 82.7645 99.269Z" fill="#3974B6"/>
  </svg>
  