<svg width="108" height="108" viewBox="0 0 108 108" fill="none" xmlns="http://www.w3.org/2000/svg">
  <g clip-path="url(#clip0_107_7917)">
    <path fill-rule="evenodd" clip-rule="evenodd" d="M62.1117 0.670898C51.88 0.670898 43.4989 9.03067 43.4989 19.2315C43.4989 20.7205 43.6797 22.167 44.0158 23.5571L37.294 26.6787L4.73448 11.5546C4.39113 11.3949 4.01763 11.3104 3.63899 11.3067C3.28776 11.3035 2.93936 11.3699 2.61394 11.5021C2.28851 11.6343 1.99249 11.8296 1.74299 12.0768C1.49348 12.3241 1.29543 12.6183 1.16028 12.9425C1.02513 13.2667 0.955552 13.6145 0.955566 13.9657L0.955566 88.725C0.955651 89.2318 1.10056 89.728 1.37322 90.1552C1.64588 90.5824 2.03494 90.9227 2.49457 91.1362L36.174 106.782C36.5324 106.948 36.9233 107.033 37.3185 107.029C37.6977 107.026 38.072 106.942 38.4161 106.783L70.9756 91.6573L103.535 106.782C103.94 106.97 104.386 107.053 104.832 107.023C105.278 106.993 105.709 106.852 106.085 106.611C106.462 106.371 106.772 106.04 106.987 105.648C107.201 105.257 107.314 104.817 107.314 104.37V29.611C107.314 29.1042 107.169 28.608 106.896 28.1809C106.624 27.7537 106.235 27.4133 105.775 27.1999L80.3085 15.3696C78.5121 7.00348 71.0149 0.670898 62.1117 0.670898ZM62.1117 9.36889C67.621 9.36889 72.0019 13.7381 72.0019 19.2315C72.0019 24.7249 67.62 29.0931 62.1117 29.0931C56.6023 29.0931 52.2214 24.7249 52.2214 19.2315C52.2214 13.7381 56.6034 9.36889 62.1117 9.36889ZM6.27349 18.1328L35.2828 31.6084L35.6773 100.688L6.27349 87.0254V18.1328ZM80.5893 21.3629L101.996 31.3074V100.203L72.5582 86.5287L72.2838 38.6483L78.6408 27.8316C78.9291 27.3105 79.1556 26.7564 79.3534 26.1884C79.9826 24.6435 80.3983 23.0201 80.5893 21.3629ZM46.0164 28.4921C46.293 28.9665 46.5812 29.4313 46.8971 29.878L59.8409 52.2505C61.6533 54.6191 62.8583 54.1692 64.3654 52.126L69.1249 44.0268L69.3674 86.5383L38.8681 100.708L38.4756 31.9945L46.0164 28.4921Z" fill="#F3520B" />
  </g>
  <defs>
    <clipPath id="clip0_107_7917">
      <rect width="106.358" height="106.358" fill="white" transform="translate(0.955566 0.670898)" />
    </clipPath>
  </defs>
</svg>
  