<svg width="107" height="108" viewBox="0 0 107 108" fill="none" xmlns="http://www.w3.org/2000/svg">
  <g clip-path="url(#clip0_107_8097)">
  <g clip-path="url(#clip1_107_8097)">
  <path d="M13.4652 66.1874L10.1215 59.4999H33.5277L30.8527 52.8124H9.00689L5.66314 46.1249H40.4381L37.7631 39.4374H5.03897L1.2048 32.7499H17.9236C17.9236 30.3851 18.863 28.1171 20.5352 26.4449C22.2074 24.7727 24.4754 23.8333 26.8402 23.8333H80.3402V41.6666H93.7152L107.09 59.4999V81.7916H98.1735C98.1735 85.3389 96.7644 88.7408 94.2561 91.2491C91.7478 93.7574 88.3458 95.1666 84.7985 95.1666C81.2513 95.1666 77.8493 93.7574 75.341 91.2491C72.8327 88.7408 71.4235 85.3389 71.4235 81.7916H53.5902C53.5902 85.3389 52.1811 88.7408 49.6728 91.2491C47.1645 93.7574 43.7625 95.1666 40.2152 95.1666C36.6679 95.1666 33.266 93.7574 30.7577 91.2491C28.2494 88.7408 26.8402 85.3389 26.8402 81.7916H17.9236V66.1874H13.4652ZM84.7985 88.4791C86.5722 88.4791 88.2732 87.7745 89.5273 86.5204C90.7815 85.2662 91.486 83.5652 91.486 81.7916C91.486 80.0179 90.7815 78.317 89.5273 77.0628C88.2732 75.8087 86.5722 75.1041 84.7985 75.1041C83.0249 75.1041 81.3239 75.8087 80.0698 77.0628C78.8156 78.317 78.111 80.0179 78.111 81.7916C78.111 83.5652 78.8156 85.2662 80.0698 86.5204C81.3239 87.7745 83.0249 88.4791 84.7985 88.4791ZM91.486 48.3541H80.3402V59.4999H100.224L91.486 48.3541ZM40.2152 88.4791C41.9889 88.4791 43.6898 87.7745 44.944 86.5204C46.1981 85.2662 46.9027 83.5652 46.9027 81.7916C46.9027 80.0179 46.1981 78.317 44.944 77.0628C43.6898 75.8087 41.9889 75.1041 40.2152 75.1041C38.4416 75.1041 36.7406 75.8087 35.4864 77.0628C34.2323 78.317 33.5277 80.0179 33.5277 81.7916C33.5277 83.5652 34.2323 85.2662 35.4864 86.5204C36.7406 87.7745 38.4416 88.4791 40.2152 88.4791Z" fill="#F24E1E"/>
  </g>
  </g>
  <defs>
  <clipPath id="clip0_107_8097">
  <rect width="106.358" height="106.358" fill="white" transform="translate(0.411011 0.670898)"/>
  </clipPath>
  <clipPath id="clip1_107_8097">
  <rect width="107" height="107" fill="white" transform="translate(0.09021 6)"/>
  </clipPath>
  </defs>
  </svg>
  