<svg width="107" height="108" viewBox="0 0 107 108" fill="none" xmlns="http://www.w3.org/2000/svg">
  <g clip-path="url(#clip0_107_8082)">
  <g clip-path="url(#clip1_107_8082)">
  <path d="M77.5167 69.2459V55.0834H86.6834V69.2459C85.1709 69.0167 83.6584 68.8334 82.1001 68.8334C80.5417 68.8334 79.0292 69.0167 77.5167 69.2459ZM38.5583 59.6667C37.275 59.6667 36.2666 60.6751 36.2666 61.9584V68.8334H63.7667V61.9584C63.7667 60.6751 62.7584 59.6667 61.475 59.6667H38.5583ZM91.2667 50.5H8.7666V23H91.2667V50.5ZM82.1001 32.1667H17.9333V41.3334H82.1001V32.1667ZM22.5166 96.3335V55.0834H13.3499V105.5H56.2042C55.1959 102.613 54.6 99.5418 54.6 96.3335H22.5166ZM86.6834 91.7501V78.0001H77.5167V91.7501H63.7667V100.917H77.5167V114.667H86.6834V100.917H100.433V91.7501H86.6834Z" fill="#3974B6"/>
  </g>
  </g>
  <defs>
  <clipPath id="clip0_107_8082">
  <rect width="106.358" height="106.358" fill="white" transform="translate(0.433228 0.670898)"/>
  </clipPath>
  <clipPath id="clip1_107_8082">
  <rect width="100" height="100" fill="white" transform="translate(0.433228 20)"/>
  </clipPath>
  </defs>
  </svg>
  