<svg width="108" height="108" viewBox="0 0 108 108" fill="none" xmlns="http://www.w3.org/2000/svg">
  <path d="M77.4965 54.1709C77.7773 54.1709 78.0515 54.1843 78.3257 54.2043L77.4162 56.351L77.0952 57.2405L77.0417 57.4076C76.6969 58.5262 76.5123 59.688 76.4933 60.8584H30.684C29.7971 60.8584 28.9466 61.2107 28.3196 61.8378C27.6925 62.4648 27.3402 63.3153 27.3402 64.2021V67.5459C27.3402 77.1625 36.9167 87.6084 54.0902 87.6084C56.1566 87.6084 58.1094 87.4546 59.9551 87.1737C58.9543 89.3201 58.5766 91.7045 58.8651 94.0551C57.2787 94.2177 55.6849 94.2981 54.0902 94.2959C33.0915 94.2959 20.6527 80.727 20.6527 67.5459V64.2021C20.6527 61.5417 21.7096 58.9902 23.5908 57.109C25.472 55.2278 28.0235 54.1709 30.684 54.1709H77.4965ZM75.4835 82.5526L80.4323 84.1978L81.2415 84.4653C83.542 82.7265 85.4546 80.5397 86.9927 77.9048C88.2561 75.7831 89.1303 73.4526 89.5741 71.0234L89.7413 69.8598L84.9463 65.3123C84.1701 64.5588 83.618 63.605 83.3512 62.5567C83.0844 61.5084 83.1134 60.4066 83.435 59.3738L83.6356 58.8053L85.8157 53.676C86.2645 52.5395 87.0961 51.5954 88.167 51.0069C89.2378 50.4183 90.4806 50.2223 91.6806 50.4526L92.1956 50.5864L94.9174 51.4558C97.6191 52.3251 99.6923 54.639 100.361 57.5414C101.946 64.4563 100.04 72.8691 94.6432 82.78C89.2531 92.6775 83.3413 98.6361 76.9146 100.636C75.6884 101.017 74.3858 101.082 73.1277 100.825C71.8697 100.567 70.6971 99.9963 69.7189 99.1644L69.1839 98.6695L67.1175 96.5964C66.2459 95.6995 65.6827 94.5484 65.5095 93.3098C65.3364 92.0713 65.5623 90.8098 66.1545 89.7083L66.4621 89.2134L69.5852 84.6258C70.0977 83.8603 70.8025 83.2431 71.6288 82.8358C72.4551 82.4285 73.3739 82.2455 74.2931 82.3052C74.5089 82.3227 74.7234 82.354 74.9351 82.3988L75.4835 82.5526ZM54.0902 10.7021C58.9677 10.7021 63.6454 12.6397 67.0943 16.0886C70.5433 19.5375 72.4808 24.2153 72.4808 29.0928C72.4808 33.9703 70.5433 38.648 67.0943 42.0969C63.6454 45.5458 58.9677 47.4834 54.0902 47.4834C49.2127 47.4834 44.535 45.5458 41.0861 42.0969C37.6372 38.648 35.6996 33.9703 35.6996 29.0928C35.6996 24.2153 37.6372 19.5375 41.0861 16.0886C44.535 12.6397 49.2127 10.7021 54.0902 10.7021ZM54.0902 17.3896C50.9863 17.3896 48.0096 18.6227 45.8149 20.8174C43.6201 23.0122 42.3871 25.9889 42.3871 29.0928C42.3871 32.1966 43.6201 35.1734 45.8149 37.3681C48.0096 39.5629 50.9863 40.7959 54.0902 40.7959C57.1941 40.7959 60.1708 39.5629 62.3656 37.3681C64.5603 35.1734 65.7933 32.1966 65.7933 29.0928C65.7933 25.9889 64.5603 23.0122 62.3656 20.8174C60.1708 18.6227 57.1941 17.3896 54.0902 17.3896Z" fill="#F24E1E"/>
  </svg>
  